# xmcd
#
# Track frame offsets:
#	150
#	17045
#	44677
#	57135
#	73757
#	87835
#	98085
#	109290
#	129885
#	141760
#	152965
#	166617
#
# Disc length: 2346 seconds
#
# Revision: 1
# Processed by: cddbd v1.5.1PL0 Copyright (c) Steve Scherf et al.
# Submitted via: CDex 1.50Beta5
#
DISCID=9b09280c
DTITLE=Various Artist - ロックベストオムニバス編集1
DYEAR=1900
DGENRE=Rock
TTITLE0=モンキーズ/恋の終列車
TTITLE1=ボブ・ディラン/ライク・ア・ローリング・ストーン
TTITLE2=ママス&パパス/夢のカリフォルニア
TTITLE3=バーズ/ターン・ターン・ターン
TTITLE4=サイモン&ガーファンクル/サウンド・オブ・サイレンス
TTITLE5=キンクス/ユー・リアリー・ガット・ミー
TTITLE6=ヤードバーズ/ユー・ユア・ラヴ
TTITLE7=ドノヴァン/サンシャイン・スーパーマン
TTITLE8=ママス&パパス/夢のカリフォルニア
TTITLE9=ビーチ・ボーイズ/サーフィン
TTITLE10=ウォーカー・ブラザース/太陽はもう輝かない
TTITLE11=ビートルズ/イエスタデイ
EXTD=
EXTT0=
EXTT1=
EXTT2=
EXTT3=
EXTT4=
EXTT5=
EXTT6=
EXTT7=
EXTT8=
EXTT9=
EXTT10=
EXTT11=
PLAYORDER=
